<?xml version="1.0" encoding="utf-8"?>
<svg xmlns="http://www.w3.org/2000/svg" xmlns:xlink="http://www.w3.org/1999/xlink" width="2400" height="1600" viewBox="0 0 9600 6400">
<defs>
  <clipPath id="clip570">
    <rect x="0" y="0" width="9600" height="6400"/>
  </clipPath>
</defs>
<path clip-path="url(#clip570)" d="
M0 6400 L9600 6400 L9600 0 L0 0  Z
  " fill="#ffffff" fill-rule="evenodd" fill-opacity="1"/>
<defs>
  <clipPath id="clip571">
    <rect x="1920" y="0" width="6721" height="6400"/>
  </clipPath>
</defs>
<path clip-path="url(#clip570)" d="
M745.096 5945.79 L9411.02 5945.79 L9411.02 493.889 L745.096 493.889  Z
  " fill="#ffffff" fill-rule="evenodd" fill-opacity="1"/>
<defs>
  <clipPath id="clip572">
    <rect x="745" y="493" width="8667" height="5453"/>
  </clipPath>
</defs>
<polyline clip-path="url(#clip572)" style="stroke:#000000; stroke-width:8; stroke-opacity:0.1; fill:none" points="
  2012.28,5945.79 2012.28,493.889 
  "/>
<polyline clip-path="url(#clip572)" style="stroke:#000000; stroke-width:8; stroke-opacity:0.1; fill:none" points="
  3545.17,5945.79 3545.17,493.889 
  "/>
<polyline clip-path="url(#clip572)" style="stroke:#000000; stroke-width:8; stroke-opacity:0.1; fill:none" points="
  5078.06,5945.79 5078.06,493.889 
  "/>
<polyline clip-path="url(#clip572)" style="stroke:#000000; stroke-width:8; stroke-opacity:0.1; fill:none" points="
  6610.95,5945.79 6610.95,493.889 
  "/>
<polyline clip-path="url(#clip572)" style="stroke:#000000; stroke-width:8; stroke-opacity:0.1; fill:none" points="
  8143.84,5945.79 8143.84,493.889 
  "/>
<polyline clip-path="url(#clip572)" style="stroke:#000000; stroke-width:8; stroke-opacity:0.1; fill:none" points="
  745.096,5791.59 9411.02,5791.59 
  "/>
<polyline clip-path="url(#clip572)" style="stroke:#000000; stroke-width:8; stroke-opacity:0.1; fill:none" points="
  745.096,4483.84 9411.02,4483.84 
  "/>
<polyline clip-path="url(#clip572)" style="stroke:#000000; stroke-width:8; stroke-opacity:0.1; fill:none" points="
  745.096,3176.1 9411.02,3176.1 
  "/>
<polyline clip-path="url(#clip572)" style="stroke:#000000; stroke-width:8; stroke-opacity:0.1; fill:none" points="
  745.096,1868.35 9411.02,1868.35 
  "/>
<polyline clip-path="url(#clip572)" style="stroke:#000000; stroke-width:8; stroke-opacity:0.1; fill:none" points="
  745.096,560.605 9411.02,560.605 
  "/>
<polyline clip-path="url(#clip570)" style="stroke:#000000; stroke-width:16; stroke-opacity:1; fill:none" points="
  745.096,5945.79 9411.02,5945.79 
  "/>
<polyline clip-path="url(#clip570)" style="stroke:#000000; stroke-width:16; stroke-opacity:1; fill:none" points="
  745.096,5945.79 745.096,493.889 
  "/>
<polyline clip-path="url(#clip570)" style="stroke:#000000; stroke-width:16; stroke-opacity:1; fill:none" points="
  2012.28,5945.79 2012.28,5880.37 
  "/>
<polyline clip-path="url(#clip570)" style="stroke:#000000; stroke-width:16; stroke-opacity:1; fill:none" points="
  3545.17,5945.79 3545.17,5880.37 
  "/>
<polyline clip-path="url(#clip570)" style="stroke:#000000; stroke-width:16; stroke-opacity:1; fill:none" points="
  5078.06,5945.79 5078.06,5880.37 
  "/>
<polyline clip-path="url(#clip570)" style="stroke:#000000; stroke-width:16; stroke-opacity:1; fill:none" points="
  6610.95,5945.79 6610.95,5880.37 
  "/>
<polyline clip-path="url(#clip570)" style="stroke:#000000; stroke-width:16; stroke-opacity:1; fill:none" points="
  8143.84,5945.79 8143.84,5880.37 
  "/>
<polyline clip-path="url(#clip570)" style="stroke:#000000; stroke-width:16; stroke-opacity:1; fill:none" points="
  745.096,5791.59 849.087,5791.59 
  "/>
<polyline clip-path="url(#clip570)" style="stroke:#000000; stroke-width:16; stroke-opacity:1; fill:none" points="
  745.096,4483.84 849.087,4483.84 
  "/>
<polyline clip-path="url(#clip570)" style="stroke:#000000; stroke-width:16; stroke-opacity:1; fill:none" points="
  745.096,3176.1 849.087,3176.1 
  "/>
<polyline clip-path="url(#clip570)" style="stroke:#000000; stroke-width:16; stroke-opacity:1; fill:none" points="
  745.096,1868.35 849.087,1868.35 
  "/>
<polyline clip-path="url(#clip570)" style="stroke:#000000; stroke-width:16; stroke-opacity:1; fill:none" points="
  745.096,560.605 849.087,560.605 
  "/>
<path clip-path="url(#clip570)" d="M2029.27 6085.14 Q2042.7 6088.01 2050.2 6097.09 Q2057.79 6106.16 2057.79 6119.49 Q2057.79 6139.96 2043.72 6151.16 Q2029.64 6162.36 2003.72 6162.36 Q1995.02 6162.36 1985.76 6160.61 Q1976.59 6158.94 1966.77 6155.51 L1966.77 6137.46 Q1974.55 6141.99 1983.81 6144.31 Q1993.07 6146.62 2003.16 6146.62 Q2020.76 6146.62 2029.92 6139.68 Q2039.18 6132.74 2039.18 6119.49 Q2039.18 6107.27 2030.57 6100.42 Q2022.05 6093.48 2006.77 6093.48 L1990.66 6093.48 L1990.66 6078.11 L2007.52 6078.11 Q2021.31 6078.11 2028.63 6072.64 Q2035.94 6067.09 2035.94 6056.72 Q2035.94 6046.07 2028.35 6040.42 Q2020.85 6034.68 2006.77 6034.68 Q1999.09 6034.68 1990.29 6036.35 Q1981.5 6038.01 1970.94 6041.53 L1970.94 6024.87 Q1981.59 6021.9 1990.85 6020.42 Q2000.2 6018.94 2008.44 6018.94 Q2029.74 6018.94 2042.14 6028.66 Q2054.55 6038.29 2054.55 6054.77 Q2054.55 6066.25 2047.98 6074.22 Q2041.4 6082.09 2029.27 6085.14 Z" fill="#000000" fill-rule="evenodd" fill-opacity="1" /><path clip-path="url(#clip570)" d="M3546.79 6083.11 Q3534.2 6083.11 3526.79 6091.72 Q3519.48 6100.33 3519.48 6115.33 Q3519.48 6130.24 3526.79 6138.94 Q3534.2 6147.55 3546.79 6147.55 Q3559.38 6147.55 3566.7 6138.94 Q3574.11 6130.24 3574.11 6115.33 Q3574.11 6100.33 3566.7 6091.72 Q3559.38 6083.11 3546.79 6083.11 M3583.92 6024.5 L3583.92 6041.53 Q3576.88 6038.2 3569.66 6036.44 Q3562.53 6034.68 3555.5 6034.68 Q3536.98 6034.68 3527.16 6047.18 Q3517.44 6059.68 3516.05 6084.96 Q3521.51 6076.9 3529.76 6072.64 Q3538 6068.29 3547.9 6068.29 Q3568.74 6068.29 3580.77 6080.98 Q3592.9 6093.57 3592.9 6115.33 Q3592.9 6136.62 3580.31 6149.49 Q3567.72 6162.36 3546.79 6162.36 Q3522.81 6162.36 3510.13 6144.03 Q3497.44 6125.61 3497.44 6090.7 Q3497.44 6057.92 3513 6038.48 Q3528.55 6018.94 3554.75 6018.94 Q3561.79 6018.94 3568.92 6020.33 Q3576.14 6021.72 3583.92 6024.5 Z" fill="#000000" fill-rule="evenodd" fill-opacity="1" /><path clip-path="url(#clip570)" d="M5039.26 6156.81 L5039.26 6139.77 Q5046.3 6143.11 5053.52 6144.86 Q5060.75 6146.62 5067.69 6146.62 Q5086.21 6146.62 5095.93 6134.22 Q5105.74 6121.72 5107.13 6096.35 Q5101.76 6104.31 5093.52 6108.57 Q5085.28 6112.83 5075.28 6112.83 Q5054.54 6112.83 5042.41 6100.33 Q5030.37 6087.74 5030.37 6065.98 Q5030.37 6044.68 5042.97 6031.81 Q5055.56 6018.94 5076.49 6018.94 Q5100.47 6018.94 5113.06 6037.37 Q5125.74 6055.7 5125.74 6090.7 Q5125.74 6123.38 5110.19 6142.92 Q5094.73 6162.36 5068.52 6162.36 Q5061.49 6162.36 5054.26 6160.98 Q5047.04 6159.59 5039.26 6156.81 M5076.49 6098.2 Q5089.08 6098.2 5096.39 6089.59 Q5103.8 6080.98 5103.8 6065.98 Q5103.8 6051.07 5096.39 6042.46 Q5089.08 6033.75 5076.49 6033.75 Q5063.89 6033.75 5056.49 6042.46 Q5049.17 6051.07 5049.17 6065.98 Q5049.17 6080.98 5056.49 6089.59 Q5063.89 6098.2 5076.49 6098.2 Z" fill="#000000" fill-rule="evenodd" fill-opacity="1" /><path clip-path="url(#clip570)" d="M6512.89 6143.94 L6543.45 6143.94 L6543.45 6038.48 L6510.21 6045.14 L6510.21 6028.11 L6543.26 6021.44 L6561.97 6021.44 L6561.97 6143.94 L6592.52 6143.94 L6592.52 6159.68 L6512.89 6159.68 L6512.89 6143.94 Z" fill="#000000" fill-rule="evenodd" fill-opacity="1" /><path clip-path="url(#clip570)" d="M6646.41 6143.94 L6711.69 6143.94 L6711.69 6159.68 L6623.91 6159.68 L6623.91 6143.94 Q6634.56 6132.92 6652.89 6114.4 Q6671.32 6095.79 6676.04 6090.42 Q6685.02 6080.33 6688.54 6073.38 Q6692.15 6066.35 6692.15 6059.59 Q6692.15 6048.57 6684.37 6041.62 Q6676.69 6034.68 6664.28 6034.68 Q6655.48 6034.68 6645.67 6037.74 Q6635.95 6040.79 6624.84 6046.99 L6624.84 6028.11 Q6636.13 6023.57 6645.95 6021.25 Q6655.76 6018.94 6663.91 6018.94 Q6685.39 6018.94 6698.17 6029.68 Q6710.95 6040.42 6710.95 6058.38 Q6710.95 6066.9 6707.71 6074.59 Q6704.56 6082.18 6696.13 6092.55 Q6693.82 6095.24 6681.41 6108.11 Q6669 6120.88 6646.41 6143.94 Z" fill="#000000" fill-rule="evenodd" fill-opacity="1" /><path clip-path="url(#clip570)" d="M8044.58 6143.94 L8075.13 6143.94 L8075.13 6038.48 L8041.89 6045.14 L8041.89 6028.11 L8074.95 6021.44 L8093.65 6021.44 L8093.65 6143.94 L8124.21 6143.94 L8124.21 6159.68 L8044.58 6159.68 L8044.58 6143.94 Z" fill="#000000" fill-rule="evenodd" fill-opacity="1" /><path clip-path="url(#clip570)" d="M8162.17 6021.44 L8235.59 6021.44 L8235.59 6037.18 L8179.3 6037.18 L8179.3 6071.07 Q8183.37 6069.68 8187.45 6069.03 Q8191.52 6068.29 8195.6 6068.29 Q8218.74 6068.29 8232.26 6080.98 Q8245.78 6093.66 8245.78 6115.33 Q8245.78 6137.64 8231.89 6150.05 Q8218 6162.36 8192.72 6162.36 Q8184.02 6162.36 8174.95 6160.88 Q8165.97 6159.4 8156.34 6156.44 L8156.34 6137.64 Q8164.67 6142.18 8173.56 6144.4 Q8182.45 6146.62 8192.35 6146.62 Q8208.37 6146.62 8217.72 6138.2 Q8227.08 6129.77 8227.08 6115.33 Q8227.08 6100.88 8217.72 6092.46 Q8208.37 6084.03 8192.35 6084.03 Q8184.85 6084.03 8177.35 6085.7 Q8169.95 6087.37 8162.17 6090.88 L8162.17 6021.44 Z" fill="#000000" fill-rule="evenodd" fill-opacity="1" /><path clip-path="url(#clip570)" d="M299.746 5734.78 Q285.302 5734.78 277.987 5749.04 Q270.765 5763.21 270.765 5791.73 Q270.765 5820.15 277.987 5834.41 Q285.302 5848.58 299.746 5848.58 Q314.283 5848.58 321.505 5834.41 Q328.82 5820.15 328.82 5791.73 Q328.82 5763.21 321.505 5749.04 Q314.283 5734.78 299.746 5734.78 M299.746 5719.97 Q322.987 5719.97 335.209 5738.39 Q347.524 5756.73 347.524 5791.73 Q347.524 5826.63 335.209 5845.06 Q322.987 5863.39 299.746 5863.39 Q276.505 5863.39 264.191 5845.06 Q251.969 5826.63 251.969 5791.73 Q251.969 5756.73 264.191 5738.39 Q276.505 5719.97 299.746 5719.97 Z" fill="#000000" fill-rule="evenodd" fill-opacity="1" /><path clip-path="url(#clip570)" d="M380.394 5837.19 L399.931 5837.19 L399.931 5860.71 L380.394 5860.71 L380.394 5837.19 Z" fill="#000000" fill-rule="evenodd" fill-opacity="1" /><path clip-path="url(#clip570)" d="M480.671 5734.78 Q466.227 5734.78 458.912 5749.04 Q451.69 5763.21 451.69 5791.73 Q451.69 5820.15 458.912 5834.41 Q466.227 5848.58 480.671 5848.58 Q495.208 5848.58 502.43 5834.41 Q509.745 5820.15 509.745 5791.73 Q509.745 5763.21 502.43 5749.04 Q495.208 5734.78 480.671 5734.78 M480.671 5719.97 Q503.912 5719.97 516.134 5738.39 Q528.449 5756.73 528.449 5791.73 Q528.449 5826.63 516.134 5845.06 Q503.912 5863.39 480.671 5863.39 Q457.43 5863.39 445.116 5845.06 Q432.893 5826.63 432.893 5791.73 Q432.893 5756.73 445.116 5738.39 Q457.43 5719.97 480.671 5719.97 Z" fill="#000000" fill-rule="evenodd" fill-opacity="1" /><path clip-path="url(#clip570)" d="M601.318 5734.78 Q586.874 5734.78 579.559 5749.04 Q572.337 5763.21 572.337 5791.73 Q572.337 5820.15 579.559 5834.41 Q586.874 5848.58 601.318 5848.58 Q615.855 5848.58 623.078 5834.41 Q630.392 5820.15 630.392 5791.73 Q630.392 5763.21 623.078 5749.04 Q615.855 5734.78 601.318 5734.78 M601.318 5719.97 Q624.559 5719.97 636.781 5738.39 Q649.096 5756.73 649.096 5791.73 Q649.096 5826.63 636.781 5845.06 Q624.559 5863.39 601.318 5863.39 Q578.078 5863.39 565.763 5845.06 Q553.541 5826.63 553.541 5791.73 Q553.541 5756.73 565.763 5738.39 Q578.078 5719.97 601.318 5719.97 Z" fill="#000000" fill-rule="evenodd" fill-opacity="1" /><path clip-path="url(#clip570)" d="M303.727 4427.04 Q289.283 4427.04 281.968 4441.3 Q274.746 4455.46 274.746 4483.98 Q274.746 4512.41 281.968 4526.67 Q289.283 4540.83 303.727 4540.83 Q318.264 4540.83 325.487 4526.67 Q332.801 4512.41 332.801 4483.98 Q332.801 4455.46 325.487 4441.3 Q318.264 4427.04 303.727 4427.04 M303.727 4412.22 Q326.968 4412.22 339.19 4430.65 Q351.505 4448.98 351.505 4483.98 Q351.505 4518.89 339.19 4537.31 Q326.968 4555.65 303.727 4555.65 Q280.487 4555.65 268.172 4537.31 Q255.95 4518.89 255.95 4483.98 Q255.95 4448.98 268.172 4430.65 Q280.487 4412.22 303.727 4412.22 Z" fill="#000000" fill-rule="evenodd" fill-opacity="1" /><path clip-path="url(#clip570)" d="M384.375 4529.44 L403.912 4529.44 L403.912 4552.96 L384.375 4552.96 L384.375 4529.44 Z" fill="#000000" fill-rule="evenodd" fill-opacity="1" /><path clip-path="url(#clip570)" d="M460.764 4537.22 L526.041 4537.22 L526.041 4552.96 L438.264 4552.96 L438.264 4537.22 Q448.912 4526.2 467.245 4507.68 Q485.671 4489.07 490.393 4483.7 Q499.375 4473.61 502.893 4466.67 Q506.504 4459.63 506.504 4452.87 Q506.504 4441.85 498.726 4434.91 Q491.041 4427.96 478.634 4427.96 Q469.838 4427.96 460.023 4431.02 Q450.301 4434.07 439.19 4440.28 L439.19 4421.39 Q450.486 4416.85 460.301 4414.54 Q470.115 4412.22 478.264 4412.22 Q499.745 4412.22 512.523 4422.96 Q525.3 4433.7 525.3 4451.67 Q525.3 4460.19 522.06 4467.87 Q518.912 4475.46 510.486 4485.83 Q508.171 4488.52 495.763 4501.39 Q483.356 4514.17 460.764 4537.22 Z" fill="#000000" fill-rule="evenodd" fill-opacity="1" /><path clip-path="url(#clip570)" d="M565.485 4414.72 L638.911 4414.72 L638.911 4430.46 L582.615 4430.46 L582.615 4464.35 Q586.689 4462.96 590.763 4462.31 Q594.837 4461.57 598.911 4461.57 Q622.059 4461.57 635.578 4474.26 Q649.096 4486.94 649.096 4508.61 Q649.096 4530.93 635.207 4543.33 Q621.318 4555.65 596.041 4555.65 Q587.337 4555.65 578.263 4554.17 Q569.282 4552.68 559.652 4549.72 L559.652 4530.93 Q567.985 4535.46 576.874 4537.68 Q585.763 4539.91 595.67 4539.91 Q611.689 4539.91 621.041 4531.48 Q630.392 4523.06 630.392 4508.61 Q630.392 4494.17 621.041 4485.74 Q611.689 4477.31 595.67 4477.31 Q588.17 4477.31 580.67 4478.98 Q573.263 4480.65 565.485 4484.17 L565.485 4414.72 Z" fill="#000000" fill-rule="evenodd" fill-opacity="1" /><path clip-path="url(#clip570)" d="M299.746 3119.29 Q285.302 3119.29 277.987 3133.55 Q270.765 3147.72 270.765 3176.24 Q270.765 3204.66 277.987 3218.92 Q285.302 3233.09 299.746 3233.09 Q314.283 3233.09 321.505 3218.92 Q328.82 3204.66 328.82 3176.24 Q328.82 3147.72 321.505 3133.55 Q314.283 3119.29 299.746 3119.29 M299.746 3104.48 Q322.987 3104.48 335.209 3122.9 Q347.524 3141.24 347.524 3176.24 Q347.524 3211.14 335.209 3229.57 Q322.987 3247.9 299.746 3247.9 Q276.505 3247.9 264.191 3229.57 Q251.969 3211.14 251.969 3176.24 Q251.969 3141.24 264.191 3122.9 Q276.505 3104.48 299.746 3104.48 Z" fill="#000000" fill-rule="evenodd" fill-opacity="1" /><path clip-path="url(#clip570)" d="M380.394 3221.7 L399.931 3221.7 L399.931 3245.22 L380.394 3245.22 L380.394 3221.7 Z" fill="#000000" fill-rule="evenodd" fill-opacity="1" /><path clip-path="url(#clip570)" d="M440.856 3106.98 L514.282 3106.98 L514.282 3122.72 L457.986 3122.72 L457.986 3156.61 Q462.06 3155.22 466.134 3154.57 Q470.208 3153.83 474.282 3153.83 Q497.43 3153.83 510.949 3166.51 Q524.467 3179.2 524.467 3200.87 Q524.467 3223.18 510.578 3235.59 Q496.689 3247.9 471.412 3247.9 Q462.708 3247.9 453.634 3246.42 Q444.653 3244.94 435.023 3241.98 L435.023 3223.18 Q443.356 3227.72 452.245 3229.94 Q461.134 3232.16 471.041 3232.16 Q487.06 3232.16 496.412 3223.74 Q505.763 3215.31 505.763 3200.87 Q505.763 3186.42 496.412 3177.99 Q487.06 3169.57 471.041 3169.57 Q463.541 3169.57 456.041 3171.24 Q448.634 3172.9 440.856 3176.42 L440.856 3106.98 Z" fill="#000000" fill-rule="evenodd" fill-opacity="1" /><path clip-path="url(#clip570)" d="M601.318 3119.29 Q586.874 3119.29 579.559 3133.55 Q572.337 3147.72 572.337 3176.24 Q572.337 3204.66 579.559 3218.92 Q586.874 3233.09 601.318 3233.09 Q615.855 3233.09 623.078 3218.92 Q630.392 3204.66 630.392 3176.24 Q630.392 3147.72 623.078 3133.55 Q615.855 3119.29 601.318 3119.29 M601.318 3104.48 Q624.559 3104.48 636.781 3122.9 Q649.096 3141.24 649.096 3176.24 Q649.096 3211.14 636.781 3229.57 Q624.559 3247.9 601.318 3247.9 Q578.078 3247.9 565.763 3229.57 Q553.541 3211.14 553.541 3176.24 Q553.541 3141.24 565.763 3122.9 Q578.078 3104.48 601.318 3104.48 Z" fill="#000000" fill-rule="evenodd" fill-opacity="1" /><path clip-path="url(#clip570)" d="M303.727 1811.55 Q289.283 1811.55 281.968 1825.8 Q274.746 1839.97 274.746 1868.49 Q274.746 1896.92 281.968 1911.17 Q289.283 1925.34 303.727 1925.34 Q318.264 1925.34 325.487 1911.17 Q332.801 1896.92 332.801 1868.49 Q332.801 1839.97 325.487 1825.8 Q318.264 1811.55 303.727 1811.55 M303.727 1796.73 Q326.968 1796.73 339.19 1815.16 Q351.505 1833.49 351.505 1868.49 Q351.505 1903.4 339.19 1921.82 Q326.968 1940.16 303.727 1940.16 Q280.487 1940.16 268.172 1921.82 Q255.95 1903.4 255.95 1868.49 Q255.95 1833.49 268.172 1815.16 Q280.487 1796.73 303.727 1796.73 Z" fill="#000000" fill-rule="evenodd" fill-opacity="1" /><path clip-path="url(#clip570)" d="M384.375 1913.95 L403.912 1913.95 L403.912 1937.47 L384.375 1937.47 L384.375 1913.95 Z" fill="#000000" fill-rule="evenodd" fill-opacity="1" /><path clip-path="url(#clip570)" d="M439.93 1799.23 L528.819 1799.23 L528.819 1807.19 L478.634 1937.47 L459.097 1937.47 L506.319 1814.97 L439.93 1814.97 L439.93 1799.23 Z" fill="#000000" fill-rule="evenodd" fill-opacity="1" /><path clip-path="url(#clip570)" d="M565.485 1799.23 L638.911 1799.23 L638.911 1814.97 L582.615 1814.97 L582.615 1848.86 Q586.689 1847.47 590.763 1846.82 Q594.837 1846.08 598.911 1846.08 Q622.059 1846.08 635.578 1858.77 Q649.096 1871.45 649.096 1893.12 Q649.096 1915.43 635.207 1927.84 Q621.318 1940.16 596.041 1940.16 Q587.337 1940.16 578.263 1938.67 Q569.282 1937.19 559.652 1934.23 L559.652 1915.43 Q567.985 1919.97 576.874 1922.19 Q585.763 1924.42 595.67 1924.42 Q611.689 1924.42 621.041 1915.99 Q630.392 1907.56 630.392 1893.12 Q630.392 1878.67 621.041 1870.25 Q611.689 1861.82 595.67 1861.82 Q588.17 1861.82 580.67 1863.49 Q573.263 1865.16 565.485 1868.67 L565.485 1799.23 Z" fill="#000000" fill-rule="evenodd" fill-opacity="1" /><path clip-path="url(#clip570)" d="M262.987 613.984 L293.542 613.984 L293.542 508.522 L260.302 515.189 L260.302 498.152 L293.357 491.485 L312.061 491.485 L312.061 613.984 L342.616 613.984 L342.616 629.725 L262.987 629.725 L262.987 613.984 Z" fill="#000000" fill-rule="evenodd" fill-opacity="1" /><path clip-path="url(#clip570)" d="M380.394 606.207 L399.931 606.207 L399.931 629.725 L380.394 629.725 L380.394 606.207 Z" fill="#000000" fill-rule="evenodd" fill-opacity="1" /><path clip-path="url(#clip570)" d="M480.671 503.8 Q466.227 503.8 458.912 518.059 Q451.69 532.225 451.69 560.744 Q451.69 589.17 458.912 603.429 Q466.227 617.595 480.671 617.595 Q495.208 617.595 502.43 603.429 Q509.745 589.17 509.745 560.744 Q509.745 532.225 502.43 518.059 Q495.208 503.8 480.671 503.8 M480.671 488.985 Q503.912 488.985 516.134 507.411 Q528.449 525.744 528.449 560.744 Q528.449 595.651 516.134 614.077 Q503.912 632.41 480.671 632.41 Q457.43 632.41 445.116 614.077 Q432.893 595.651 432.893 560.744 Q432.893 525.744 445.116 507.411 Q457.43 488.985 480.671 488.985 Z" fill="#000000" fill-rule="evenodd" fill-opacity="1" /><path clip-path="url(#clip570)" d="M601.318 503.8 Q586.874 503.8 579.559 518.059 Q572.337 532.225 572.337 560.744 Q572.337 589.17 579.559 603.429 Q586.874 617.595 601.318 617.595 Q615.855 617.595 623.078 603.429 Q630.392 589.17 630.392 560.744 Q630.392 532.225 623.078 518.059 Q615.855 503.8 601.318 503.8 M601.318 488.985 Q624.559 488.985 636.781 507.411 Q649.096 525.744 649.096 560.744 Q649.096 595.651 636.781 614.077 Q624.559 632.41 601.318 632.41 Q578.078 632.41 565.763 614.077 Q553.541 595.651 553.541 560.744 Q553.541 525.744 565.763 507.411 Q578.078 488.985 601.318 488.985 Z" fill="#000000" fill-rule="evenodd" fill-opacity="1" /><path clip-path="url(#clip570)" d="M4244.38 174.772 L4244.38 263.406 L4296.88 263.406 Q4323.3 263.406 4335.93 252.55 Q4348.74 241.531 4348.74 219.008 Q4348.74 196.323 4335.93 185.629 Q4323.3 174.772 4296.88 174.772 L4244.38 174.772 M4244.38 75.282 L4244.38 148.198 L4292.83 148.198 Q4316.81 148.198 4328.48 139.286 Q4340.31 130.212 4340.31 111.74 Q4340.31 93.4301 4328.48 84.356 Q4316.81 75.282 4292.83 75.282 L4244.38 75.282 M4211.65 48.384 L4295.26 48.384 Q4332.69 48.384 4352.95 63.9395 Q4373.2 79.4949 4373.2 108.175 Q4373.2 130.374 4362.83 143.499 Q4352.46 156.624 4332.37 159.865 Q4356.51 165.05 4369.8 181.578 Q4383.25 197.943 4383.25 222.573 Q4383.25 254.98 4361.21 272.642 Q4339.17 290.304 4298.5 290.304 L4211.65 290.304 L4211.65 48.384 Z" fill="#000000" fill-rule="evenodd" fill-opacity="1" /><path clip-path="url(#clip570)" d="M4508.34 129.726 Q4484.36 129.726 4470.42 148.522 Q4456.49 167.157 4456.49 199.726 Q4456.49 232.295 4470.26 251.091 Q4484.2 269.725 4508.34 269.725 Q4532.16 269.725 4546.1 250.929 Q4560.03 232.133 4560.03 199.726 Q4560.03 167.481 4546.1 148.684 Q4532.16 129.726 4508.34 129.726 M4508.34 104.449 Q4547.23 104.449 4569.43 129.726 Q4591.63 155.004 4591.63 199.726 Q4591.63 244.286 4569.43 269.725 Q4547.23 295.003 4508.34 295.003 Q4469.29 295.003 4447.09 269.725 Q4425.05 244.286 4425.05 199.726 Q4425.05 155.004 4447.09 129.726 Q4469.29 104.449 4508.34 104.449 Z" fill="#000000" fill-rule="evenodd" fill-opacity="1" /><path clip-path="url(#clip570)" d="M4791.9 180.768 L4791.9 290.304 L4762.09 290.304 L4762.09 181.74 Q4762.09 155.976 4752.04 143.175 Q4742 130.374 4721.9 130.374 Q4697.76 130.374 4683.83 145.768 Q4669.89 161.161 4669.89 187.735 L4669.89 290.304 L4639.91 290.304 L4639.91 108.823 L4669.89 108.823 L4669.89 137.018 Q4680.59 120.652 4695.01 112.55 Q4709.59 104.449 4728.55 104.449 Q4759.82 104.449 4775.86 123.893 Q4791.9 143.175 4791.9 180.768 Z" fill="#000000" fill-rule="evenodd" fill-opacity="1" /><path clip-path="url(#clip570)" d="M4970.79 136.37 L4970.79 38.1757 L5000.61 38.1757 L5000.61 290.304 L4970.79 290.304 L4970.79 263.082 Q4961.39 279.286 4946.97 287.225 Q4932.71 295.003 4912.62 295.003 Q4879.73 295.003 4858.99 268.753 Q4838.41 242.503 4838.41 199.726 Q4838.41 156.948 4858.99 130.698 Q4879.73 104.449 4912.62 104.449 Q4932.71 104.449 4946.97 112.388 Q4961.39 120.166 4970.79 136.37 M4869.2 199.726 Q4869.2 232.619 4882.64 251.415 Q4896.26 270.049 4919.91 270.049 Q4943.57 270.049 4957.18 251.415 Q4970.79 232.619 4970.79 199.726 Q4970.79 166.832 4957.18 148.198 Q4943.57 129.402 4919.91 129.402 Q4896.26 129.402 4882.64 148.198 Q4869.2 166.832 4869.2 199.726 Z" fill="#000000" fill-rule="evenodd" fill-opacity="1" /><path clip-path="url(#clip570)" d="M5196.35 263.082 L5196.35 359.331 L5166.37 359.331 L5166.37 108.823 L5196.35 108.823 L5196.35 136.37 Q5205.74 120.166 5220 112.388 Q5234.42 104.449 5254.36 104.449 Q5287.41 104.449 5307.99 130.698 Q5328.73 156.948 5328.73 199.726 Q5328.73 242.503 5307.99 268.753 Q5287.41 295.003 5254.36 295.003 Q5234.42 295.003 5220 287.225 Q5205.74 279.286 5196.35 263.082 M5297.78 199.726 Q5297.78 166.832 5284.17 148.198 Q5270.72 129.402 5247.06 129.402 Q5223.41 129.402 5209.8 148.198 Q5196.35 166.832 5196.35 199.726 Q5196.35 232.619 5209.8 251.415 Q5223.41 270.049 5247.06 270.049 Q5270.72 270.049 5284.17 251.415 Q5297.78 232.619 5297.78 199.726 Z" fill="#000000" fill-rule="evenodd" fill-opacity="1" /><path clip-path="url(#clip570)" d="M5483.31 136.694 Q5478.29 133.777 5472.29 132.481 Q5466.46 131.022 5459.33 131.022 Q5434.05 131.022 5420.44 147.55 Q5406.99 163.916 5406.99 194.703 L5406.99 290.304 L5377.02 290.304 L5377.02 108.823 L5406.99 108.823 L5406.99 137.018 Q5416.39 120.49 5431.46 112.55 Q5446.53 104.449 5468.08 104.449 Q5471.16 104.449 5474.89 104.935 Q5478.61 105.259 5483.15 106.069 L5483.31 136.694 Z" fill="#000000" fill-rule="evenodd" fill-opacity="1" /><path clip-path="url(#clip570)" d="M5514.59 108.823 L5544.4 108.823 L5544.4 290.304 L5514.59 290.304 L5514.59 108.823 M5514.59 38.1757 L5544.4 38.1757 L5544.4 75.9301 L5514.59 75.9301 L5514.59 38.1757 Z" fill="#000000" fill-rule="evenodd" fill-opacity="1" /><path clip-path="url(#clip570)" d="M5737.38 115.791 L5737.38 143.661 Q5724.75 136.694 5711.95 133.291 Q5699.31 129.726 5686.34 129.726 Q5657.34 129.726 5641.3 148.198 Q5625.26 166.508 5625.26 199.726 Q5625.26 232.943 5641.3 251.415 Q5657.34 269.725 5686.34 269.725 Q5699.31 269.725 5711.95 266.323 Q5724.75 262.758 5737.38 255.79 L5737.38 283.336 Q5724.91 289.17 5711.46 292.086 Q5698.17 295.003 5683.1 295.003 Q5642.11 295.003 5617.96 269.239 Q5593.82 243.476 5593.82 199.726 Q5593.82 155.328 5618.13 129.888 Q5642.59 104.449 5685.05 104.449 Q5698.82 104.449 5711.95 107.365 Q5725.07 110.12 5737.38 115.791 Z" fill="#000000" fill-rule="evenodd" fill-opacity="1" /><path clip-path="url(#clip570)" d="M5944.47 192.11 L5944.47 206.693 L5807.38 206.693 Q5809.33 237.48 5825.86 253.684 Q5842.55 269.725 5872.2 269.725 Q5889.37 269.725 5905.42 265.512 Q5921.62 261.3 5937.5 252.874 L5937.5 281.068 Q5921.46 287.873 5904.61 291.438 Q5887.75 295.003 5870.42 295.003 Q5826.99 295.003 5801.55 269.725 Q5776.27 244.448 5776.27 201.346 Q5776.27 156.786 5800.26 130.698 Q5824.4 104.449 5865.23 104.449 Q5901.85 104.449 5923.08 128.106 Q5944.47 151.601 5944.47 192.11 M5914.65 183.36 Q5914.33 158.893 5900.88 144.309 Q5887.59 129.726 5865.56 129.726 Q5840.6 129.726 5825.53 143.823 Q5810.63 157.92 5808.36 183.522 L5914.65 183.36 Z" fill="#000000" fill-rule="evenodd" fill-opacity="1" /><polyline clip-path="url(#clip572)" style="stroke:#009af9; stroke-width:16; stroke-opacity:1; fill:none" points="
  990.358,5791.49 1501.32,5791.49 2012.28,5791.49 2523.25,5791.49 3034.21,5791.49 3545.17,5755.43 4056.13,5755.43 4567.1,5755.43 5078.06,5755.43 5589.02,5755.43 
  6099.99,5755.43 6610.95,4683.92 7121.91,4683.92 7632.87,4683.92 8143.84,4683.92 8654.8,4683.92 9165.76,1622.79 
  "/>
<polyline clip-path="url(#clip572)" style="stroke:#e26f46; stroke-width:16; stroke-opacity:1; fill:none" points="
  990.358,4939.48 1501.32,4939.48 2012.28,4939.48 2523.25,4939.48 3034.21,4939.48 3545.17,1898.6 4056.13,1898.6 4567.1,1898.6 5078.06,1898.6 5589.02,1898.6 
  6099.99,1898.6 6610.95,694.545 7121.91,694.545 7632.87,694.545 8143.84,694.545 8654.8,694.545 9165.76,648.188 
  "/>
<path clip-path="url(#clip570)" d="
M7598.86 1553.73 L9123.02 1553.73 L9123.02 827.969 L7598.86 827.969  Z
  " fill="#ffffff" fill-rule="evenodd" fill-opacity="1"/>
<polyline clip-path="url(#clip570)" style="stroke:#000000; stroke-width:16; stroke-opacity:1; fill:none" points="
  7598.86,1553.73 9123.02,1553.73 9123.02,827.969 7598.86,827.969 7598.86,1553.73 
  "/>
<polyline clip-path="url(#clip570)" style="stroke:#009af9; stroke-width:16; stroke-opacity:1; fill:none" points="
  7694.86,1069.89 8270.86,1069.89 
  "/>
<path clip-path="url(#clip570)" d="M8422.23 1148.64 Q8415.01 1167.16 8408.16 1172.8 Q8401.3 1178.45 8389.82 1178.45 L8376.21 1178.45 L8376.21 1164.19 L8386.21 1164.19 Q8393.25 1164.19 8397.14 1160.86 Q8401.03 1157.53 8405.75 1145.12 L8408.8 1137.34 L8366.86 1035.31 L8384.92 1035.31 L8417.32 1116.42 L8449.73 1035.31 L8467.79 1035.31 L8422.23 1148.64 Z" fill="#000000" fill-rule="evenodd" fill-opacity="1" /><path clip-path="url(#clip570)" d="M8551.58 994.935 L8568.62 994.935 L8568.62 1139.01 L8551.58 1139.01 L8551.58 994.935 Z" fill="#000000" fill-rule="evenodd" fill-opacity="1" /><path clip-path="url(#clip570)" d="M8644.45 1047.25 Q8630.75 1047.25 8622.78 1057.99 Q8614.82 1068.64 8614.82 1087.25 Q8614.82 1105.86 8622.69 1116.6 Q8630.65 1127.25 8644.45 1127.25 Q8658.06 1127.25 8666.03 1116.51 Q8673.99 1105.77 8673.99 1087.25 Q8673.99 1068.82 8666.03 1058.08 Q8658.06 1047.25 8644.45 1047.25 M8644.45 1032.81 Q8666.67 1032.81 8679.36 1047.25 Q8692.04 1061.69 8692.04 1087.25 Q8692.04 1112.71 8679.36 1127.25 Q8666.67 1141.69 8644.45 1141.69 Q8622.14 1141.69 8609.45 1127.25 Q8596.86 1112.71 8596.86 1087.25 Q8596.86 1061.69 8609.45 1047.25 Q8622.14 1032.81 8644.45 1032.81 Z" fill="#000000" fill-rule="evenodd" fill-opacity="1" /><path clip-path="url(#clip570)" d="M8710.38 1035.31 L8727.41 1035.31 L8748.71 1116.23 L8769.91 1035.31 L8790.01 1035.31 L8811.3 1116.23 L8832.51 1035.31 L8849.54 1035.31 L8822.41 1139.01 L8802.32 1139.01 L8780.01 1054.01 L8757.6 1139.01 L8737.51 1139.01 L8710.38 1035.31 Z" fill="#000000" fill-rule="evenodd" fill-opacity="1" /><polyline clip-path="url(#clip570)" style="stroke:#e26f46; stroke-width:16; stroke-opacity:1; fill:none" points="
  7694.86,1311.81 8270.86,1311.81 
  "/>
<path clip-path="url(#clip570)" d="M8422.23 1390.56 Q8415.01 1409.08 8408.16 1414.72 Q8401.3 1420.37 8389.82 1420.37 L8376.21 1420.37 L8376.21 1406.11 L8386.21 1406.11 Q8393.25 1406.11 8397.14 1402.78 Q8401.03 1399.45 8405.75 1387.04 L8408.8 1379.26 L8366.86 1277.23 L8384.92 1277.23 L8417.32 1358.34 L8449.73 1277.23 L8467.79 1277.23 L8422.23 1390.56 Z" fill="#000000" fill-rule="evenodd" fill-opacity="1" /><path clip-path="url(#clip570)" d="M8637.78 1318.34 L8637.78 1380.93 L8620.75 1380.93 L8620.75 1318.89 Q8620.75 1304.17 8615.01 1296.85 Q8609.27 1289.54 8597.78 1289.54 Q8583.99 1289.54 8576.03 1298.34 Q8568.06 1307.13 8568.06 1322.32 L8568.06 1380.93 L8550.93 1380.93 L8550.93 1236.86 L8568.06 1236.86 L8568.06 1293.34 Q8574.17 1283.98 8582.41 1279.35 Q8590.75 1274.73 8601.58 1274.73 Q8619.45 1274.73 8628.62 1285.84 Q8637.78 1296.85 8637.78 1318.34 Z" fill="#000000" fill-rule="evenodd" fill-opacity="1" /><path clip-path="url(#clip570)" d="M8671.77 1277.23 L8688.8 1277.23 L8688.8 1380.93 L8671.77 1380.93 L8671.77 1277.23 M8671.77 1236.86 L8688.8 1236.86 L8688.8 1258.43 L8671.77 1258.43 L8671.77 1236.86 Z" fill="#000000" fill-rule="evenodd" fill-opacity="1" /><path clip-path="url(#clip570)" d="M8792.69 1327.87 Q8792.69 1309.35 8785.01 1299.17 Q8777.41 1288.98 8763.62 1288.98 Q8749.91 1288.98 8742.23 1299.17 Q8734.64 1309.35 8734.64 1327.87 Q8734.64 1346.3 8742.23 1356.48 Q8749.91 1366.67 8763.62 1366.67 Q8777.41 1366.67 8785.01 1356.48 Q8792.69 1346.3 8792.69 1327.87 M8809.73 1368.06 Q8809.73 1394.54 8797.97 1407.41 Q8786.21 1420.37 8761.95 1420.37 Q8752.97 1420.37 8745.01 1418.98 Q8737.04 1417.69 8729.54 1414.91 L8729.54 1398.34 Q8737.04 1402.41 8744.36 1404.35 Q8751.67 1406.3 8759.27 1406.3 Q8776.02 1406.3 8784.36 1397.5 Q8792.69 1388.8 8792.69 1371.11 L8792.69 1362.69 Q8787.41 1371.85 8779.17 1376.39 Q8770.93 1380.93 8759.45 1380.93 Q8740.38 1380.93 8728.71 1366.39 Q8717.04 1351.85 8717.04 1327.87 Q8717.04 1303.8 8728.71 1289.26 Q8740.38 1274.73 8759.45 1274.73 Q8770.93 1274.73 8779.17 1279.26 Q8787.41 1283.8 8792.69 1292.97 L8792.69 1277.23 L8809.73 1277.23 L8809.73 1368.06 Z" fill="#000000" fill-rule="evenodd" fill-opacity="1" /><path clip-path="url(#clip570)" d="M8931.02 1318.34 L8931.02 1380.93 L8913.99 1380.93 L8913.99 1318.89 Q8913.99 1304.17 8908.25 1296.85 Q8902.51 1289.54 8891.02 1289.54 Q8877.23 1289.54 8869.26 1298.34 Q8861.3 1307.13 8861.3 1322.32 L8861.3 1380.93 L8844.17 1380.93 L8844.17 1236.86 L8861.3 1236.86 L8861.3 1293.34 Q8867.41 1283.98 8875.65 1279.35 Q8883.99 1274.73 8894.82 1274.73 Q8912.69 1274.73 8921.86 1285.84 Q8931.02 1296.85 8931.02 1318.34 Z" fill="#000000" fill-rule="evenodd" fill-opacity="1" /></svg>
